<svg width="132" height="40" viewBox="0 0 132 40" fill="none" xmlns="http://www.w3.org/2000/svg">
<path d="M1.57812 22V6H7.57813C8.80729 6 9.83854 6.22917 10.6719 6.6875C11.5104 7.14583 12.1432 7.77604 12.5703 8.57812C13.0026 9.375 13.2188 10.2812 13.2188 11.2969C13.2188 12.3229 13.0026 13.2344 12.5703 14.0313C12.138 14.8281 11.5 15.4557 10.6562 15.9141C9.8125 16.3672 8.77344 16.5937 7.53906 16.5937H3.5625V14.2109H7.14844C7.86719 14.2109 8.45573 14.0859 8.91406 13.8359C9.3724 13.5859 9.71094 13.2422 9.92969 12.8047C10.1536 12.3672 10.2656 11.8646 10.2656 11.2969C10.2656 10.7292 10.1536 10.2292 9.92969 9.79688C9.71094 9.36458 9.36979 9.02865 8.90625 8.78906C8.44792 8.54427 7.85677 8.42188 7.13281 8.42188H4.47656V22H1.57812ZM20.312 22.2344C19.1088 22.2344 18.0698 21.9844 17.1948 21.4844C16.325 20.9792 15.6557 20.2656 15.187 19.3437C14.7182 18.4167 14.4838 17.3255 14.4838 16.0703C14.4838 14.8359 14.7182 13.7526 15.187 12.8203C15.6609 11.8828 16.3224 11.1536 17.1713 10.6328C18.0203 10.1068 19.0177 9.84375 20.1635 9.84375C20.9031 9.84375 21.601 9.96354 22.2573 10.2031C22.9187 10.4375 23.5021 10.8021 24.0073 11.2969C24.5177 11.7917 24.9187 12.4219 25.2104 13.1875C25.5021 13.9479 25.6479 14.8542 25.6479 15.9062V16.7734H15.812V14.8672H22.937C22.9317 14.3255 22.8146 13.8437 22.5854 13.4219C22.3562 12.9948 22.0359 12.6589 21.6245 12.4141C21.2182 12.1693 20.7442 12.0469 20.2026 12.0469C19.6245 12.0469 19.1166 12.1875 18.6791 12.4687C18.2416 12.7448 17.9005 13.1094 17.6557 13.5625C17.4161 14.0104 17.2937 14.5026 17.2885 15.0391V16.7031C17.2885 17.401 17.4161 18 17.6713 18.5C17.9265 18.9948 18.2833 19.375 18.7416 19.6406C19.2 19.901 19.7364 20.0312 20.351 20.0312C20.7625 20.0312 21.1349 19.974 21.4682 19.8594C21.8015 19.7396 22.0906 19.5651 22.3354 19.3359C22.5802 19.1068 22.7651 18.8229 22.8901 18.4844L25.5307 18.7812C25.364 19.4792 25.0463 20.0885 24.5776 20.6094C24.114 21.125 23.5203 21.526 22.7963 21.8125C22.0724 22.0937 21.2442 22.2344 20.312 22.2344ZM35.8427 14.8281V17.1484H29.452V14.8281H35.8427ZM30.327 10V22H27.6005V10H30.327ZM37.6942 10V22H34.9755V10H37.6942ZM45.428 22.2344C44.2249 22.2344 43.1859 21.9844 42.3109 21.4844C41.4411 20.9792 40.7718 20.2656 40.303 19.3437C39.8343 18.4167 39.5999 17.3255 39.5999 16.0703C39.5999 14.8359 39.8343 13.7526 40.303 12.8203C40.777 11.8828 41.4385 11.1536 42.2874 10.6328C43.1364 10.1068 44.1338 9.84375 45.2796 9.84375C46.0192 9.84375 46.7171 9.96354 47.3734 10.2031C48.0348 10.4375 48.6182 10.8021 49.1234 11.2969C49.6338 11.7917 50.0348 12.4219 50.3265 13.1875C50.6182 13.9479 50.764 14.8542 50.764 15.9062V16.7734H40.928V14.8672H48.053C48.0478 14.3255 47.9307 13.8437 47.7015 13.4219C47.4723 12.9948 47.152 12.6589 46.7405 12.4141C46.3343 12.1693 45.8603 12.0469 45.3187 12.0469C44.7405 12.0469 44.2327 12.1875 43.7952 12.4687C43.3577 12.7448 43.0166 13.1094 42.7718 13.5625C42.5322 14.0104 42.4098 14.5026 42.4046 15.0391V16.7031C42.4046 17.401 42.5322 18 42.7874 18.5C43.0426 18.9948 43.3994 19.375 43.8577 19.6406C44.3161 19.901 44.8525 20.0312 45.4671 20.0312C45.8786 20.0312 46.251 19.974 46.5843 19.8594C46.9176 19.7396 47.2067 19.5651 47.4515 19.3359C47.6963 19.1068 47.8812 18.8229 48.0062 18.4844L50.6468 18.7812C50.4801 19.4792 50.1624 20.0885 49.6937 20.6094C49.2301 21.125 48.6364 21.526 47.9124 21.8125C47.1885 22.0937 46.3603 22.2344 45.428 22.2344ZM57.9509 22.2344C56.753 22.2344 55.7244 21.9714 54.865 21.4453C54.0108 20.9193 53.352 20.1927 52.8884 19.2656C52.4301 18.3333 52.2009 17.2604 52.2009 16.0469C52.2009 14.8281 52.4353 13.7526 52.9041 12.8203C53.3728 11.8828 54.0343 11.1536 54.8884 10.6328C55.7478 10.1068 56.7634 9.84375 57.9353 9.84375C58.9093 9.84375 59.7713 10.0234 60.5213 10.3828C61.2765 10.737 61.878 11.2396 62.3259 11.8906C62.7739 12.5365 63.0291 13.2917 63.0916 14.1562H60.3884C60.2791 13.5781 60.0186 13.0964 59.6072 12.7109C59.2009 12.3203 58.6567 12.125 57.9744 12.125C57.3963 12.125 56.8884 12.2812 56.4509 12.5937C56.0134 12.901 55.6723 13.3437 55.4275 13.9219C55.1879 14.5 55.0681 15.1927 55.0681 16C55.0681 16.8177 55.1879 17.5208 55.4275 18.1094C55.6671 18.6927 56.003 19.1432 56.4353 19.4609C56.8728 19.7734 57.3858 19.9297 57.9744 19.9297C58.391 19.9297 58.7634 19.8516 59.0916 19.6953C59.4249 19.5339 59.7035 19.3021 59.9275 19C60.1515 18.6979 60.3051 18.3307 60.3884 17.8984H63.0916C63.0239 18.7474 62.7739 19.5 62.3416 20.1562C61.9093 20.8073 61.3207 21.3177 60.5759 21.6875C59.8311 22.0521 58.9561 22.2344 57.9509 22.2344ZM70.2082 22.2344C69.0103 22.2344 67.9816 21.9714 67.1223 21.4453C66.2681 20.9193 65.6092 20.1927 65.1457 19.2656C64.6874 18.3333 64.4582 17.2604 64.4582 16.0469C64.4582 14.8281 64.6926 13.7526 65.1613 12.8203C65.6301 11.8828 66.2915 11.1536 67.1457 10.6328C68.0051 10.1068 69.0207 9.84375 70.1926 9.84375C71.1665 9.84375 72.0285 10.0234 72.7785 10.3828C73.5337 10.737 74.1353 11.2396 74.5832 11.8906C75.0311 12.5365 75.2863 13.2917 75.3488 14.1562H72.6457C72.5363 13.5781 72.2759 13.0964 71.8645 12.7109C71.4582 12.3203 70.9139 12.125 70.2316 12.125C69.6535 12.125 69.1457 12.2812 68.7082 12.5937C68.2707 12.901 67.9296 13.3437 67.6848 13.9219C67.4452 14.5 67.3254 15.1927 67.3254 16C67.3254 16.8177 67.4452 17.5208 67.6848 18.1094C67.9243 18.6927 68.2603 19.1432 68.6926 19.4609C69.1301 19.7734 69.6431 19.9297 70.2316 19.9297C70.6483 19.9297 71.0207 19.8516 71.3488 19.6953C71.6822 19.5339 71.9608 19.3021 72.1848 19C72.4087 18.6979 72.5624 18.3307 72.6457 17.8984H75.3488C75.2811 18.7474 75.0311 19.5 74.5988 20.1562C74.1665 20.8073 73.578 21.3177 72.8332 21.6875C72.0884 22.0521 71.2134 22.2344 70.2082 22.2344ZM80.6842 22.2422C79.9238 22.2422 79.2389 22.1068 78.6295 21.8359C78.0254 21.5599 77.5462 21.1536 77.192 20.6172C76.8431 20.0807 76.6686 19.4193 76.6686 18.6328C76.6686 17.9557 76.7936 17.3958 77.0436 16.9531C77.2936 16.5104 77.6347 16.1562 78.067 15.8906C78.4993 15.625 78.9863 15.4245 79.528 15.2891C80.0748 15.1484 80.6399 15.0469 81.2233 14.9844C81.9264 14.9115 82.4967 14.8464 82.9342 14.7891C83.3717 14.7266 83.6894 14.6328 83.8873 14.5078C84.0905 14.3776 84.192 14.1771 84.192 13.9062V13.8594C84.192 13.2708 84.0176 12.8151 83.6686 12.4922C83.3196 12.1693 82.817 12.0078 82.1608 12.0078C81.4681 12.0078 80.9186 12.1589 80.5123 12.4609C80.1113 12.763 79.8405 13.1198 79.6998 13.5312L77.0592 13.1562C77.2676 12.4271 77.6113 11.8177 78.0905 11.3281C78.5696 10.8333 79.1556 10.4635 79.8483 10.2187C80.541 9.96875 81.3066 9.84375 82.1452 9.84375C82.7233 9.84375 83.2988 9.91146 83.8717 10.0469C84.4446 10.1823 84.9681 10.4062 85.442 10.7187C85.916 11.026 86.2962 11.4453 86.5827 11.9766C86.8743 12.5078 87.0202 13.1719 87.0202 13.9687V22H84.3014V20.3516H84.2077C84.0358 20.6849 83.7936 20.9974 83.4811 21.2891C83.1738 21.5755 82.7858 21.8073 82.317 21.9844C81.8535 22.1563 81.3092 22.2422 80.6842 22.2422ZM81.4186 20.1641C81.9863 20.1641 82.4785 20.0521 82.8952 19.8281C83.3118 19.599 83.6321 19.2969 83.8561 18.9219C84.0853 18.5469 84.1998 18.138 84.1998 17.6953V16.2812C84.1113 16.3542 83.9603 16.4219 83.7467 16.4844C83.5384 16.5469 83.304 16.6016 83.0436 16.6484C82.7832 16.6953 82.5254 16.737 82.2702 16.7734C82.0149 16.8099 81.7936 16.8411 81.6061 16.8672C81.1842 16.9245 80.8066 17.0182 80.4733 17.1484C80.1399 17.2786 79.8769 17.4609 79.6842 17.6953C79.4915 17.9245 79.3952 18.2214 79.3952 18.5859C79.3952 19.1068 79.5853 19.5 79.9655 19.7656C80.3457 20.0312 80.8301 20.1641 81.4186 20.1641ZM97.6661 14.8281V17.1484H91.2755V14.8281H97.6661ZM92.1505 10V22H89.4239V10H92.1505ZM99.5177 10V22H96.7989V10H99.5177ZM107.173 22.2344C105.975 22.2344 104.947 21.9714 104.087 21.4453C103.233 20.9193 102.574 20.1927 102.111 19.2656C101.653 18.3333 101.423 17.2604 101.423 16.0469C101.423 14.8281 101.658 13.7526 102.126 12.8203C102.595 11.8828 103.257 11.1536 104.111 10.6328C104.97 10.1068 105.986 9.84375 107.158 9.84375C108.132 9.84375 108.994 10.0234 109.744 10.3828C110.499 10.737 111.1 11.2396 111.548 11.8906C111.996 12.5365 112.251 13.2917 112.314 14.1562H109.611C109.501 13.5781 109.241 13.0964 108.83 12.7109C108.423 12.3203 107.879 12.125 107.197 12.125C106.619 12.125 106.111 12.2812 105.673 12.5937C105.236 12.901 104.895 13.3437 104.65 13.9219C104.41 14.5 104.291 15.1927 104.291 16C104.291 16.8177 104.41 17.5208 104.65 18.1094C104.89 18.6927 105.225 19.1432 105.658 19.4609C106.095 19.7734 106.608 19.9297 107.197 19.9297C107.613 19.9297 107.986 19.8516 108.314 19.6953C108.647 19.5339 108.926 19.3021 109.15 19C109.374 18.6979 109.528 18.3307 109.611 17.8984H112.314C112.246 18.7474 111.996 19.5 111.564 20.1562C111.132 20.8073 110.543 21.3177 109.798 21.6875C109.054 22.0521 108.179 22.2344 107.173 22.2344ZM3.64773 37.1278C2.99432 37.1278 2.43324 36.9844 1.96449 36.6974C1.49858 36.4105 1.1392 36.0142 0.886364 35.5085C0.636364 35 0.511364 34.4148 0.511364 33.7528C0.511364 33.0881 0.639205 32.5014 0.894886 31.9929C1.15057 31.4815 1.51136 31.0838 1.97727 30.7997C2.44602 30.5128 3 30.3693 3.6392 30.3693C4.17045 30.3693 4.64063 30.4673 5.04972 30.6634C5.46165 30.8565 5.78977 31.1307 6.03409 31.4858C6.27841 31.8381 6.41761 32.25 6.4517 32.7216H4.97727C4.91761 32.4062 4.77557 32.1435 4.55114 31.9332C4.32955 31.7202 4.03267 31.6136 3.66051 31.6136C3.34517 31.6136 3.06818 31.6989 2.82955 31.8693C2.59091 32.0369 2.40483 32.2784 2.27131 32.5938C2.14063 32.9091 2.07528 33.2869 2.07528 33.7273C2.07528 34.1733 2.14063 34.5568 2.27131 34.8778C2.40199 35.196 2.58523 35.4418 2.82102 35.6151C3.05966 35.7855 3.33949 35.8707 3.66051 35.8707C3.88778 35.8707 4.09091 35.8281 4.26989 35.7429C4.4517 35.6548 4.60369 35.5284 4.72585 35.3636C4.84801 35.1989 4.93182 34.9986 4.97727 34.7628H6.4517C6.41477 35.2259 6.27841 35.6364 6.04261 35.9943C5.80682 36.3494 5.4858 36.6278 5.07955 36.8295C4.6733 37.0284 4.19602 37.1278 3.64773 37.1278ZM7.00325 31.7202V30.4545H12.7305V31.7202H10.6126V37H9.12115V31.7202H7.00325ZM13.7189 39.4545V30.4545H15.2359V31.5369H15.3254C15.4049 31.3778 15.5172 31.2088 15.662 31.0298C15.8069 30.848 16.003 30.6932 16.2501 30.5653C16.4973 30.4347 16.8126 30.3693 17.1961 30.3693C17.7018 30.3693 18.1578 30.4986 18.564 30.7571C18.9731 31.0128 19.297 31.392 19.5356 31.8949C19.7771 32.3949 19.8978 33.0085 19.8978 33.7358C19.8978 34.4545 19.7799 35.0653 19.5441 35.5682C19.3084 36.071 18.9873 36.4545 18.5811 36.7188C18.1748 36.983 17.7146 37.1151 17.2004 37.1151C16.8254 37.1151 16.5143 37.0526 16.2672 36.9276C16.02 36.8026 15.8211 36.652 15.6706 36.4759C15.5228 36.2969 15.4078 36.1278 15.3254 35.9688H15.2615V39.4545H13.7189ZM15.2316 33.7273C15.2316 34.1506 15.2913 34.5213 15.4106 34.8395C15.5328 35.1577 15.7075 35.4062 15.9348 35.5852C16.1649 35.7614 16.4433 35.8494 16.77 35.8494C17.1109 35.8494 17.3964 35.7585 17.6265 35.5767C17.8566 35.392 18.0299 35.1406 18.1464 34.8224C18.2657 34.5014 18.3254 34.1364 18.3254 33.7273C18.3254 33.321 18.2672 32.9602 18.1507 32.6449C18.0342 32.3295 17.8609 32.0824 17.6308 31.9034C17.4007 31.7244 17.1138 31.6349 16.77 31.6349C16.4405 31.6349 16.1606 31.7216 15.9305 31.8949C15.7004 32.0682 15.5257 32.3111 15.4064 32.6236C15.2899 32.9361 15.2316 33.304 15.2316 33.7273ZM22.8624 37.1321C22.4476 37.1321 22.074 37.0582 21.7416 36.9105C21.4121 36.7599 21.1507 36.5384 20.9576 36.2457C20.7672 35.9531 20.672 35.5923 20.672 35.1634C20.672 34.794 20.7402 34.4886 20.8766 34.2472C21.013 34.0057 21.199 33.8125 21.4348 33.6676C21.6706 33.5227 21.9363 33.4134 22.2317 33.3395C22.53 33.2628 22.8382 33.2074 23.1564 33.1733C23.5399 33.1335 23.851 33.098 24.0897 33.0668C24.3283 33.0327 24.5016 32.9815 24.6095 32.9134C24.7203 32.8423 24.7757 32.733 24.7757 32.5852V32.5597C24.7757 32.2386 24.6806 31.9901 24.4902 31.8139C24.2999 31.6378 24.0257 31.5497 23.6678 31.5497C23.2899 31.5497 22.9902 31.6321 22.7686 31.7969C22.5499 31.9616 22.4022 32.1562 22.3255 32.3807L20.8851 32.1761C20.9988 31.7784 21.1863 31.446 21.4476 31.179C21.709 30.9091 22.0286 30.7074 22.4064 30.5739C22.7843 30.4375 23.2019 30.3693 23.6593 30.3693C23.9746 30.3693 24.2885 30.4062 24.601 30.4801C24.9135 30.554 25.199 30.6761 25.4576 30.8466C25.7161 31.0142 25.9235 31.2429 26.0797 31.5327C26.2388 31.8224 26.3184 32.1847 26.3184 32.6193V37H24.8354V36.1009H24.7843C24.6905 36.2827 24.5584 36.4531 24.388 36.6122C24.2203 36.7685 24.0087 36.8949 23.753 36.9915C23.5002 37.0852 23.2033 37.1321 22.8624 37.1321ZM23.263 35.9986C23.5726 35.9986 23.8411 35.9375 24.0684 35.8153C24.2956 35.6903 24.4703 35.5256 24.5925 35.321C24.7175 35.1165 24.78 34.8935 24.78 34.652V33.8807C24.7317 33.9205 24.6493 33.9574 24.5328 33.9915C24.4192 34.0256 24.2914 34.0554 24.1493 34.081C24.0073 34.1065 23.8666 34.1293 23.7274 34.1491C23.5882 34.169 23.4675 34.1861 23.3652 34.2003C23.1351 34.2315 22.9291 34.2827 22.7473 34.3537C22.5655 34.4247 22.422 34.5241 22.3169 34.652C22.2118 34.777 22.1593 34.9389 22.1593 35.1378C22.1593 35.4219 22.263 35.6364 22.4703 35.7812C22.6777 35.9261 22.9419 35.9986 23.263 35.9986ZM28.8909 30.4545L30.2119 32.8707L31.5542 30.4545H33.1863L31.2133 33.7273L33.2204 37H31.5968L30.2119 34.6435L28.8397 37H27.2034L29.1977 33.7273L27.2545 30.4545H28.8909ZM36.7485 37.1278C36.1093 37.1278 35.5553 36.9872 35.0866 36.706C34.6178 36.4247 34.2542 36.0312 33.9957 35.5256C33.74 35.0199 33.6121 34.429 33.6121 33.7528C33.6121 33.0767 33.74 32.4844 33.9957 31.9759C34.2542 31.4673 34.6178 31.0724 35.0866 30.7912C35.5553 30.5099 36.1093 30.3693 36.7485 30.3693C37.3877 30.3693 37.9417 30.5099 38.4104 30.7912C38.8792 31.0724 39.2414 31.4673 39.4971 31.9759C39.7556 32.4844 39.8849 33.0767 39.8849 33.7528C39.8849 34.429 39.7556 35.0199 39.4971 35.5256C39.2414 36.0312 38.8792 36.4247 38.4104 36.706C37.9417 36.9872 37.3877 37.1278 36.7485 37.1278ZM36.757 35.892C37.1036 35.892 37.3934 35.7969 37.6263 35.6065C37.8593 35.4134 38.0326 35.1548 38.1462 34.831C38.2627 34.5071 38.321 34.1463 38.321 33.7486C38.321 33.348 38.2627 32.9858 38.1462 32.6619C38.0326 32.3352 37.8593 32.0753 37.6263 31.8821C37.3934 31.6889 37.1036 31.5923 36.757 31.5923C36.4019 31.5923 36.1065 31.6889 35.8707 31.8821C35.6377 32.0753 35.463 32.3352 35.3465 32.6619C35.2329 32.9858 35.1761 33.348 35.1761 33.7486C35.1761 34.1463 35.2329 34.5071 35.3465 34.831C35.463 35.1548 35.6377 35.4134 35.8707 35.6065C36.1065 35.7969 36.4019 35.892 36.757 35.892ZM40.9542 37V30.4545H43.7028C44.4783 30.4545 45.0905 30.6094 45.5394 30.919C45.9911 31.2287 46.217 31.6605 46.217 32.2145C46.217 32.581 46.0891 32.8807 45.8334 33.1136C45.5806 33.3437 45.2354 33.4986 44.7979 33.5781C45.1417 33.6065 45.4428 33.6932 45.7013 33.8381C45.9627 33.983 46.1672 34.1733 46.315 34.4091C46.4627 34.6449 46.5366 34.9162 46.5366 35.223C46.5366 35.5838 46.4414 35.8977 46.2511 36.1648C46.0636 36.429 45.7894 36.6349 45.4286 36.7827C45.0707 36.9276 44.636 37 44.1246 37H40.9542ZM42.3988 35.7855H44.1246C44.4087 35.7855 44.6317 35.7187 44.7937 35.5852C44.9556 35.4489 45.0366 35.2642 45.0366 35.0312C45.0366 34.7614 44.9556 34.5497 44.7937 34.3963C44.6317 34.2401 44.4087 34.1619 44.1246 34.1619H42.3988V35.7855ZM42.3988 33.1648H43.7326C43.9428 33.1648 44.1232 33.1349 44.2738 33.0753C44.4243 33.0128 44.5394 32.9261 44.619 32.8153C44.6985 32.7017 44.7383 32.5668 44.7383 32.4105C44.7383 32.1861 44.6459 32.0099 44.4613 31.8821C44.2795 31.7543 44.0266 31.6903 43.7028 31.6903H42.3988V33.1648ZM49.4532 37.1321C49.0384 37.1321 48.6648 37.0582 48.3324 36.9105C48.0029 36.7599 47.7415 36.5384 47.5483 36.2457C47.358 35.9531 47.2628 35.5923 47.2628 35.1634C47.2628 34.794 47.331 34.4886 47.4674 34.2472C47.6037 34.0057 47.7898 33.8125 48.0256 33.6676C48.2614 33.5227 48.527 33.4134 48.8225 33.3395C49.1208 33.2628 49.429 33.2074 49.7472 33.1733C50.1307 33.1335 50.4418 33.098 50.6804 33.0668C50.9191 33.0327 51.0924 32.9815 51.2003 32.9134C51.3111 32.8423 51.3665 32.733 51.3665 32.5852V32.5597C51.3665 32.2386 51.2713 31.9901 51.081 31.8139C50.8907 31.6378 50.6165 31.5497 50.2586 31.5497C49.8807 31.5497 49.581 31.6321 49.3594 31.7969C49.1407 31.9616 48.9929 32.1562 48.9162 32.3807L47.4759 32.1761C47.5895 31.7784 47.777 31.446 48.0384 31.179C48.2998 30.9091 48.6194 30.7074 48.9972 30.5739C49.375 30.4375 49.7927 30.3693 50.25 30.3693C50.5654 30.3693 50.8793 30.4062 51.1918 30.4801C51.5043 30.554 51.7898 30.6761 52.0483 30.8466C52.3069 31.0142 52.5142 31.2429 52.6705 31.5327C52.8296 31.8224 52.9091 32.1847 52.9091 32.6193V37H51.4262V36.1009H51.375C51.2813 36.2827 51.1492 36.4531 50.9787 36.6122C50.8111 36.7685 50.5995 36.8949 50.3438 36.9915C50.091 37.0852 49.7941 37.1321 49.4532 37.1321ZM49.8537 35.9986C50.1634 35.9986 50.4319 35.9375 50.6591 35.8153C50.8864 35.6903 51.0611 35.5256 51.1833 35.321C51.3083 35.1165 51.3708 34.8935 51.3708 34.652V33.8807C51.3225 33.9205 51.2401 33.9574 51.1236 33.9915C51.01 34.0256 50.8821 34.0554 50.7401 34.081C50.5981 34.1065 50.4574 34.1293 50.3182 34.1491C50.179 34.169 50.0583 34.1861 49.956 34.2003C49.7259 34.2315 49.5199 34.2827 49.3381 34.3537C49.1563 34.4247 49.0128 34.5241 48.9077 34.652C48.8026 34.777 48.75 34.9389 48.75 35.1378C48.75 35.4219 48.8537 35.6364 49.0611 35.7812C49.2685 35.9261 49.5327 35.9986 49.8537 35.9986ZM58.716 33.0881V34.3537H55.2302V33.0881H58.716ZM55.7075 30.4545V37H54.2203V30.4545H55.7075ZM59.726 30.4545V37H58.243V30.4545H59.726ZM62.5339 34.9119L65.1546 30.4545H66.7399V37H65.2484V32.5384L62.6362 37H61.0467V30.4545H62.5339V34.9119ZM70.9817 37.1278C70.3255 37.1278 69.7587 36.9915 69.2815 36.7188C68.807 36.4432 68.442 36.054 68.1863 35.5511C67.9306 35.0455 67.8028 34.4503 67.8028 33.7656C67.8028 33.0923 67.9306 32.5014 68.1863 31.9929C68.4448 31.4815 68.8056 31.0838 69.2687 30.7997C69.7317 30.5128 70.2758 30.3693 70.9008 30.3693C71.3042 30.3693 71.6849 30.4347 72.0428 30.5653C72.4036 30.6932 72.7218 30.892 72.9974 31.1619C73.2758 31.4318 73.4945 31.7756 73.6536 32.1932C73.8127 32.608 73.8923 33.1023 73.8923 33.6761V34.1491H68.5272V33.1094H72.4136C72.4107 32.8139 72.3468 32.5511 72.2218 32.321C72.0968 32.0881 71.9221 31.9048 71.6977 31.7713C71.4761 31.6378 71.2175 31.571 70.9221 31.571C70.6067 31.571 70.3298 31.6477 70.0911 31.8011C69.8525 31.9517 69.6664 32.1506 69.5329 32.3977C69.4022 32.642 69.3354 32.9105 69.3326 33.2031V34.1108C69.3326 34.4915 69.4022 34.8182 69.5414 35.0909C69.6806 35.3608 69.8752 35.5682 70.1252 35.7131C70.3752 35.8551 70.6678 35.9261 71.0031 35.9261C71.2275 35.9261 71.4306 35.8949 71.6124 35.8324C71.7942 35.767 71.9519 35.6719 72.0854 35.5469C72.219 35.4219 72.3198 35.267 72.388 35.0824L73.8283 35.2443C73.7374 35.625 73.5641 35.9574 73.3085 36.2415C73.0556 36.5227 72.7317 36.7415 72.3369 36.8977C71.942 37.0511 71.4903 37.1278 70.9817 37.1278Z" fill="#350663"/>
<path d="M123 19L115.206 5.5L130.794 5.5L123 19Z" fill="#98FE68"/>
</svg>
